<svg width="279" height="60" viewBox="0 0 279 60" fill="none" xmlns="http://www.w3.org/2000/svg">
<path d="M9.78885 12.3707C10.6548 12.8051 11.7312 12.5638 13.0261 11.6629C14.321 10.7619 15.7859 9.71606 17.4288 8.50938C19.0636 7.31075 20.8602 6.12824 22.8026 4.96983C24.7449 3.81142 26.8411 3.10349 29.0828 2.84607C30.7177 2.67713 32.2553 2.62884 33.6797 2.71733C35.1041 2.80582 36.3343 3.16786 37.3702 3.81142C38.4061 4.45498 39.2073 5.4203 39.7658 6.70742C40.3242 7.99454 40.567 9.75628 40.478 11.9846C40.3889 13.8751 40.0652 16.0632 39.5068 18.549C38.9484 21.0347 38.1876 23.5687 37.2407 26.143C36.2857 28.7172 35.1446 31.2029 33.8092 33.6082C32.4739 36.0136 30.9766 38.0729 29.3418 39.7864C28.5649 39.9554 28.1279 39.8749 28.0469 39.529C27.9579 39.1911 28.0712 38.6682 28.3706 37.9845C28.6701 37.3007 29.0586 36.4882 29.5361 35.5389C30.0055 34.5977 30.4182 33.568 30.7662 32.4498C31.9721 28.508 32.749 24.8156 33.097 21.3806C33.4369 17.9456 33.3317 15.0737 32.7733 12.7569C32.2068 10.4401 31.1547 8.81508 29.6008 7.86583C28.0469 6.92462 25.9751 6.92462 23.3853 7.86583C20.8764 8.81508 18.9179 10.5286 17.4935 13.0143C16.0691 15.5001 14.8147 18.2674 13.7383 21.3163C12.6619 24.3651 11.6422 27.43 10.6953 30.5191C9.74838 33.6082 8.5344 36.2307 7.06954 38.3706C5.85558 39.2313 4.64969 39.5934 3.44382 39.4647C2.22985 39.336 1.33152 38.797 0.724539 37.8558C-0.0524007 36.5686 -0.206168 35.1126 0.271326 33.4796C0.740727 31.8465 1.30724 30.1813 1.95468 28.4597C2.60213 26.7463 3.05537 25.073 3.31435 23.44C3.57333 21.8069 3.14439 20.3107 2.01944 18.9351C1.67144 18.5892 1.33153 18.3317 0.983525 18.1628C0.635521 17.9939 0.813556 17.6962 1.50147 17.2618C2.10846 16.6585 2.68307 15.9505 3.24959 15.138C3.80801 14.3256 4.41499 13.6177 5.06244 13.0143C5.70989 12.411 6.4221 12.0249 7.19904 11.8559C7.97598 11.687 8.84195 11.8559 9.78885 12.3707Z" fill="white"/>
<path d="M199.104 6.44966C198.327 6.6186 195.778 6.77144 191.464 6.90015C187.151 7.02887 181.663 7.11736 175.019 7.15758C168.375 7.20585 160.88 7.20585 152.553 7.15758C144.217 7.11736 135.695 7.05301 126.978 6.96452C118.262 6.88408 109.643 6.77144 101.145 6.64272C92.6392 6.51401 84.894 6.32097 77.9016 6.06354C76.2587 5.9831 74.4296 6.43358 72.3983 7.41501C70.3669 8.40449 68.4893 10.2064 66.7654 12.8209C65.0335 15.4354 63.5687 19.0233 62.3628 23.5684C61.1488 28.1216 60.5499 33.9539 60.5499 41.0732C60.5499 41.4111 61.0031 42.119 61.9096 43.197C62.816 44.2669 63.7872 45.4494 64.8231 46.7366C65.859 48.0237 66.7654 49.2866 67.5424 50.5335C68.3193 51.7724 68.5378 52.7458 68.1898 53.4296C68.1008 53.5985 67.6476 54.0892 66.8302 54.9098C66.0128 55.7223 65.0821 56.4945 64.0461 57.2266C63.0102 57.9586 61.9743 58.5137 60.9384 58.8999C59.9025 59.286 59.1255 59.0929 58.6076 58.3207C58.3486 57.9748 57.8063 57.307 56.9889 56.3256C56.1634 55.3361 55.2813 54.218 54.3344 52.9791C53.3875 51.7322 52.5216 50.5094 51.7446 49.3108C50.9677 48.1122 50.5306 47.0342 50.4497 46.093C50.8786 45.2323 51.4209 44.4439 52.0683 43.7118C52.7158 42.9798 53.1285 42.1029 53.2985 41.0732C52.6915 38.4105 52.4973 35.6673 52.7158 32.8356C52.9343 30.004 53.4684 27.2367 54.3344 24.5337C55.1923 21.8308 56.301 19.2807 57.6364 16.8754C58.9718 14.4781 60.5014 12.3704 62.2333 10.5684C64.645 7.99421 67.3886 5.99917 70.4559 4.58333C73.5151 3.1675 77.0761 2.37113 81.1388 2.20219C90.802 1.86432 100.562 1.77583 110.404 1.94476C120.245 2.1137 130.062 2.39524 139.863 2.78137C149.655 3.16751 159.456 3.53754 169.257 3.87541C179.049 4.22133 188.826 4.39027 198.586 4.39027C200.998 4.30983 202.43 4.47877 202.859 4.90513C203.288 5.33954 202.042 5.85437 199.104 6.44966Z" fill="white"/>
<path d="M208.942 12.3707C209.808 12.8051 210.885 12.5638 212.18 11.6629C213.475 10.7619 214.939 9.71606 216.582 8.50938C218.217 7.31075 220.014 6.12824 221.956 4.96983C223.898 3.81142 225.995 3.10349 228.236 2.84607C229.879 2.67713 231.409 2.62884 232.833 2.71733C234.258 2.80582 235.488 3.16786 236.524 3.81142C237.56 4.45498 238.353 5.4203 238.919 6.70742C239.478 7.99454 239.721 9.75628 239.632 11.9846C239.542 13.8751 239.219 16.0632 238.66 18.549C238.102 21.0347 237.341 23.5687 236.394 26.143C235.447 28.7172 234.298 31.2029 232.963 33.6082C231.627 36.0136 230.13 38.0729 228.495 39.7864C227.718 39.9554 227.281 39.8749 227.2 39.529C227.111 39.1911 227.225 38.6682 227.524 37.9845C227.824 37.3007 228.212 36.4882 228.69 35.5389C229.159 34.5977 229.572 33.568 229.92 32.4498C231.126 28.508 231.903 24.8156 232.251 21.3806C232.591 17.9456 232.485 15.0737 231.927 12.7569C231.36 10.4401 230.308 8.81508 228.754 7.86583C227.2 6.92462 225.129 6.92462 222.539 7.86583C220.038 8.81508 218.071 10.5286 216.647 13.0143C215.223 15.5001 213.968 18.2674 212.892 21.3163C211.815 24.3651 210.796 27.43 209.849 30.5191C208.902 33.6082 207.688 36.2307 206.223 38.3706C205.009 39.2313 203.803 39.5934 202.597 39.4647C201.383 39.336 200.477 38.797 199.878 37.8558C199.101 36.5686 198.947 35.1126 199.425 33.4796C199.894 31.8465 200.461 30.1813 201.108 28.4597C201.756 26.7463 202.209 25.073 202.468 23.44C202.727 21.8069 202.298 20.3107 201.173 18.9351C200.825 18.5892 200.477 18.3317 200.137 18.1628C199.789 17.9939 199.967 17.6962 200.655 17.2618C201.262 16.6585 201.837 15.9505 202.403 15.138C202.962 14.3256 203.569 13.6177 204.216 13.0143C204.863 12.411 205.576 12.0249 206.353 11.8559C207.13 11.687 207.987 11.8559 208.942 12.3707Z" fill="white"/>
<path d="M254.267 21.8955C254.874 21.984 255.214 22.2816 255.303 22.7965C255.384 23.3113 255.408 23.9549 255.367 24.7272C255.319 25.4995 255.303 26.3361 255.303 27.2371C255.303 28.1381 255.432 29.0229 255.691 29.8757C256.12 31.1628 256.938 32.3453 258.152 33.4153C259.357 34.4852 260.717 35.2172 262.23 35.6033C263.744 35.9895 265.233 35.9493 266.698 35.4746C268.163 35.0081 269.369 33.8658 270.324 32.0638C271.44 30.7767 272.007 29.1034 272.007 27.044C272.007 24.9846 271.659 22.8608 270.971 20.6727C270.283 18.4846 269.352 16.3367 268.187 14.2371C267.022 12.1375 265.791 10.3517 264.497 8.89561C263.979 8.0429 263.784 7.11778 263.914 6.1283C264.043 5.13883 264.407 4.22175 265.014 3.36099C265.621 2.50023 266.309 1.84055 267.086 1.36592C267.863 0.891293 268.64 0.786744 269.417 1.04417C270.105 1.30159 270.947 2.09797 271.942 3.42531C272.938 4.7607 273.885 6.3696 274.791 8.25201C275.697 10.1425 276.474 12.1536 277.122 14.3015C277.769 16.4494 278.093 18.4686 278.093 20.351C278.093 22.9252 277.915 25.3708 277.575 27.6876C277.227 30.0044 275.892 32.281 273.561 34.5093C270.623 37.2605 267.175 38.8694 263.202 39.336C259.228 39.8026 255.602 39.1027 252.324 37.2122C250.86 36.3595 249.557 35.1368 248.44 33.5439C247.315 31.9592 246.692 30.3503 246.562 28.7172C246.433 27.0842 246.926 25.604 248.051 24.2767C249.168 22.9494 251.24 22.1529 254.267 21.8955Z" fill="white"/>
</svg>
