<svg width="40" height="40" viewBox="0 0 40 40" fill="none" xmlns="http://www.w3.org/2000/svg">
<g clip-path="url(#clip0_3289_5077)">
<path d="M35.9222 6.66795C35.7707 6.65235 35.6181 6.65235 35.4666 6.66795H4.35549C4.15609 6.67103 3.95802 6.70092 3.7666 6.75684L19.8222 22.7457L35.9222 6.66795Z" fill="#95B48A"/>
<path d="M38.01 8.21094L21.63 24.2437C21.2085 24.6555 20.6382 24.8867 20.0438 24.8867C19.4494 24.8867 18.8791 24.6555 18.4575 24.2437L2.22377 8.33257C2.17386 8.51284 2.1474 8.6986 2.14502 8.88542V30.9995C2.14502 31.586 2.38207 32.1485 2.80403 32.5632C3.22599 32.9779 3.79828 33.2109 4.39502 33.2109H35.895C36.4918 33.2109 37.0641 32.9779 37.486 32.5632C37.908 32.1485 38.145 31.586 38.145 30.9995V8.88542C38.1361 8.65505 38.0905 8.42747 38.01 8.21094ZM5.93627 30.9995H4.37252V29.4184L12.5513 21.4462L14.1375 23.0053L5.93627 30.9995ZM35.8725 30.9995H34.2975L26.0963 23.0053L27.6825 21.4462L35.8613 29.4184L35.8725 30.9995Z" fill="#95B48A"/>
</g>
<defs>
<clipPath id="clip0_3289_5077">
<rect width="40" height="40" fill="white"/>
</clipPath>
</defs>
</svg>
