<svg width="20" height="16" viewBox="0 0 20 16" fill="none" xmlns="http://www.w3.org/2000/svg">
<path fill-rule="evenodd" clip-rule="evenodd" d="M7.172 9.19826L10.002 11.1333L12.73 9.25126L18.845 15.2843C18.6837 15.3369 18.513 15.3636 18.333 15.3643H1.667C1.447 15.3643 1.237 15.3213 1.044 15.2443L7.172 9.19826ZM20 4.24026V13.6973C20 13.9443 19.946 14.1783 19.85 14.3893L13.856 8.47526L20 4.24026ZM0 4.29326L6.042 8.42526L0.106 14.2833C0.0364628 14.0957 0.000578992 13.8973 0 13.6973L0 4.29326ZM18.333 0.364258C19.253 0.364258 20 1.11026 20 2.03126V2.61726L9.998 9.51226L0 2.67426V2.03126C0 1.11126 0.746 0.364258 1.667 0.364258H18.333Z" fill="#081C6B"/>
</svg>
