<svg width="32" height="32" viewBox="0 0 32 32" fill="none" xmlns="http://www.w3.org/2000/svg">
<path d="M19.4309 12.5737C18.8681 12.0108 18.1998 11.5641 17.4643 11.2594C16.7288 10.9547 15.9405 10.7979 15.1444 10.7979C14.3483 10.7979 13.56 10.9547 12.8245 11.2594C12.089 11.5641 11.4208 12.0108 10.8579 12.5737L4.73436 18.6987C3.59775 19.8355 2.95931 21.3772 2.95947 22.9846C2.95964 24.5921 3.59841 26.1337 4.73526 27.2702C5.87211 28.4067 7.41391 29.0451 9.02149 29.045C10.6291 29.0448 12.1707 28.4061 13.3073 27.2693L13.8813 26.7258M13.3073 18.6987C13.8702 19.2617 14.5384 19.7083 15.2739 20.013C16.0094 20.3177 16.7977 20.4745 17.5938 20.4745C18.39 20.4745 19.1783 20.3177 19.9138 20.013C20.6492 19.7083 21.3175 19.2617 21.8803 18.6987L28.0021 12.5737C29.139 11.4372 29.7777 9.89564 29.7779 8.28817C29.7781 6.6807 29.1396 5.139 28.003 4.00223C26.8664 2.86546 25.3247 2.22673 23.7171 2.22656C22.1096 2.22639 20.5678 2.8648 19.4309 4.00134L17.5929 5.71939" stroke="#0468DC" stroke-width="4" stroke-linecap="round" stroke-linejoin="round"/>
</svg>
