<svg width="24" height="24" viewBox="0 0 24 24" fill="none" xmlns="http://www.w3.org/2000/svg">
<path d="M13.2127 9.78772C12.8979 9.47281 12.5242 9.223 12.1128 9.05257C11.7014 8.88213 11.2605 8.79441 10.8152 8.79441C10.3699 8.79441 9.92903 8.88213 9.51766 9.05257C9.10629 9.223 8.73253 9.47281 8.41772 9.78772L4.99272 13.2137C4.357 13.8496 3.99991 14.7119 4 15.6111C4.00009 16.5102 4.35737 17.3725 4.99322 18.0082C5.62908 18.6439 6.49143 19.001 7.39058 19.0009C8.28972 19.0009 9.152 18.6436 9.78772 18.0077L10.1087 17.7037M9.78772 13.2137C10.1025 13.5286 10.4763 13.7784 10.8877 13.9489C11.299 14.1193 11.7399 14.207 12.1852 14.207C12.6305 14.207 13.0714 14.1193 13.4828 13.9489C13.8942 13.7784 14.2679 13.5286 14.5827 13.2137L18.0067 9.78772C18.6426 9.152 18.9999 8.28972 18.9999 7.39058C19 6.49143 18.6429 5.62908 18.0072 4.99322C17.3715 4.35737 16.5092 4.00009 15.6101 4C14.7109 3.99991 13.8486 4.357 13.2127 4.99272L12.1847 5.95372" stroke="white" stroke-width="2" stroke-linecap="round" stroke-linejoin="round"/>
</svg>
