<svg width="28" height="41" viewBox="0 0 28 41" fill="none" xmlns="http://www.w3.org/2000/svg">
<path d="M14 19.8643C12.6739 19.8643 11.4021 19.3375 10.4645 18.3998C9.52678 17.4621 9 16.1903 9 14.8643C9 13.5382 9.52678 12.2664 10.4645 11.3287C11.4021 10.391 12.6739 9.86426 14 9.86426C15.3261 9.86426 16.5979 10.391 17.5355 11.3287C18.4732 12.2664 19 13.5382 19 14.8643C19 15.5209 18.8707 16.171 18.6194 16.7777C18.3681 17.3843 17.9998 17.9355 17.5355 18.3998C17.0712 18.8641 16.52 19.2324 15.9134 19.4837C15.3068 19.7349 14.6566 19.8643 14 19.8643ZM14 0.864258C10.287 0.864258 6.72601 2.33925 4.1005 4.96476C1.475 7.59027 0 11.1512 0 14.8643C0 25.3643 14 40.8643 14 40.8643C14 40.8643 28 25.3643 28 14.8643C28 11.1512 26.525 7.59027 23.8995 4.96476C21.274 2.33925 17.713 0.864258 14 0.864258Z" fill="#081C6B"/>
</svg>
