<svg width="28" height="41" viewBox="0 0 28 41" fill="none" xmlns="http://www.w3.org/2000/svg">
<path d="M14 19.8633C12.6739 19.8633 11.4021 19.3365 10.4645 18.3988C9.52678 17.4611 9 16.1894 9 14.8633C9 13.5372 9.52678 12.2654 10.4645 11.3277C11.4021 10.3901 12.6739 9.86328 14 9.86328C15.3261 9.86328 16.5979 10.3901 17.5355 11.3277C18.4732 12.2654 19 13.5372 19 14.8633C19 15.5199 18.8707 16.1701 18.6194 16.7767C18.3681 17.3833 17.9998 17.9345 17.5355 18.3988C17.0712 18.8631 16.52 19.2314 15.9134 19.4827C15.3068 19.734 14.6566 19.8633 14 19.8633ZM14 0.863281C10.287 0.863281 6.72601 2.33828 4.1005 4.96379C1.475 7.5893 0 11.1503 0 14.8633C0 25.3633 14 40.8633 14 40.8633C14 40.8633 28 25.3633 28 14.8633C28 11.1503 26.525 7.5893 23.8995 4.96379C21.274 2.33828 17.713 0.863281 14 0.863281Z" fill="#0468DC"/>
</svg>
