<svg width="34" height="34" viewBox="0 0 34 34" fill="none" xmlns="http://www.w3.org/2000/svg">
<g clip-path="url(#clip0_1592_5307)">
<path d="M15.3963 4.76912C17.4385 4.76725 19.4355 5.37219 21.1344 6.50741C22.8334 7.64263 24.1581 9.25712 24.941 11.1467C25.7238 13.0362 25.9296 15.1158 25.5323 17.1225C25.135 19.1293 24.1525 20.9728 22.7091 22.4201C21.2656 23.8674 19.4261 24.8532 17.4232 25.253C15.4204 25.6528 13.3441 25.4486 11.4571 24.6661C9.57013 23.8837 7.95721 22.5582 6.82239 20.8573C5.68758 19.1564 5.08186 17.1566 5.08185 15.1108C5.09424 12.3735 6.18461 9.75164 8.11599 7.81516C10.0474 5.87867 12.6637 4.78402 15.3963 4.76912ZM15.3963 2.83301C12.9721 2.83301 10.6024 3.55309 8.58686 4.90219C6.57127 6.25129 5.00031 8.16881 4.07263 10.4123C3.14496 12.6558 2.90224 15.1244 3.37516 17.5061C3.84809 19.8877 5.01541 22.0754 6.72953 23.7925C8.44365 25.5096 10.6276 26.6789 13.0051 27.1526C15.3827 27.6264 17.8471 27.3832 20.0867 26.454C22.3263 25.5247 24.2405 23.951 25.5873 21.932C26.934 19.9129 27.6529 17.5391 27.6529 15.1108C27.6529 11.8545 26.3616 8.73162 24.063 6.42909C21.7644 4.12656 18.6469 2.83301 15.3963 2.83301Z" fill="#022859"/>
<path d="M32.9985 31.4404L26.05 24.4326L24.7112 25.7643L31.6597 32.7721C31.747 32.8601 31.8508 32.9301 31.9651 32.978C32.0793 33.0259 32.2019 33.0508 32.3258 33.0512C32.4497 33.0516 32.5724 33.0276 32.6871 32.9805C32.8017 32.9335 32.9059 32.8642 32.9938 32.7768C33.0817 32.6893 33.1516 32.5854 33.1994 32.4709C33.2472 32.3565 33.272 32.2337 33.2725 32.1096C33.2729 31.9855 33.2489 31.8625 33.2019 31.7477C33.1549 31.6329 33.0858 31.5285 32.9985 31.4404Z" fill="#022859"/>
</g>
<defs>
<clipPath id="clip0_1592_5307">
<rect width="33.9414" height="34" rx="14" fill="white"/>
</clipPath>
</defs>
</svg>
