<svg width="11" height="11" viewBox="0 0 11 11" fill="none" xmlns="http://www.w3.org/2000/svg">
<g id="mdi:eye">
<path id="Vector" d="M5.50002 4.125C5.86469 4.125 6.21443 4.26987 6.47229 4.52773C6.73015 4.78559 6.87502 5.13533 6.87502 5.5C6.87502 5.86467 6.73015 6.21441 6.47229 6.47227C6.21443 6.73013 5.86469 6.875 5.50002 6.875C5.13535 6.875 4.78561 6.73013 4.52775 6.47227C4.26989 6.21441 4.12502 5.86467 4.12502 5.5C4.12502 5.13533 4.26989 4.78559 4.52775 4.52773C4.78561 4.26987 5.13535 4.125 5.50002 4.125ZM5.50002 7.79167C6.10781 7.79167 6.6907 7.55022 7.12047 7.12045C7.55024 6.69068 7.79169 6.10779 7.79169 5.5C7.79169 4.89221 7.55024 4.30932 7.12047 3.87955C6.6907 3.44978 6.10781 3.20833 5.50002 3.20833C4.89223 3.20833 4.30934 3.44978 3.87957 3.87955C3.4498 4.30932 3.20835 4.89221 3.20835 5.5C3.20835 6.10779 3.4498 6.69068 3.87957 7.12045C4.30934 7.55022 4.89223 7.79167 5.50002 7.79167ZM5.50002 2.0625C7.79169 2.0625 9.74877 3.48792 10.5417 5.5C9.74877 7.51208 7.79169 8.9375 5.50002 8.9375C3.20835 8.9375 1.25127 7.51208 0.458354 5.5C1.25127 3.48792 3.20835 2.0625 5.50002 2.0625Z" fill="white"/>
</g>
</svg>
