<svg width="25" height="26" viewBox="0 0 25 26" fill="none" xmlns="http://www.w3.org/2000/svg">
<path d="M17.1284 4.338C17.2208 4.2398 17.2931 4.12428 17.3411 3.99805C17.3891 3.87181 17.4118 3.73733 17.408 3.60227C17.4042 3.46722 17.3739 3.33424 17.3189 3.21093C17.2639 3.08762 17.1852 2.97639 17.0874 2.8836C16.9895 2.7908 16.8744 2.71825 16.7486 2.6701C16.6228 2.62195 16.4888 2.59913 16.3543 2.60295C16.2197 2.60677 16.0872 2.63715 15.9643 2.69237C15.8414 2.74758 15.7306 2.82654 15.6381 2.92474L6.92639 12.1819C6.74648 12.3729 6.64624 12.6257 6.64624 12.8885C6.64624 13.1513 6.74648 13.4042 6.92639 13.5951L15.6381 22.8533C15.73 22.9537 15.8408 23.0347 15.9641 23.0917C16.0874 23.1487 16.2208 23.1806 16.3565 23.1854C16.4922 23.1902 16.6275 23.168 16.7546 23.1199C16.8816 23.0718 16.9979 22.9989 17.0966 22.9053C17.1953 22.8118 17.2745 22.6995 17.3296 22.5749C17.3847 22.4504 17.4146 22.3161 17.4176 22.1799C17.4205 22.0436 17.3965 21.9082 17.3468 21.7813C17.2972 21.6545 17.2229 21.5389 17.1284 21.4411L9.08075 12.8885L17.1284 4.338Z" fill="#022859"/>
</svg>
