<svg width="11" height="22" viewBox="0 0 11 22" fill="none" xmlns="http://www.w3.org/2000/svg">
<path d="M10.4821 2.5128C10.5746 2.4146 10.6469 2.29909 10.6948 2.17285C10.7428 2.04662 10.7656 1.91213 10.7618 1.77708C10.758 1.64203 10.7277 1.50905 10.6727 1.38574C10.6176 1.26242 10.539 1.1512 10.4411 1.0584C10.3433 0.965604 10.2282 0.893059 10.1024 0.844906C9.97659 0.796753 9.84259 0.773935 9.70802 0.777755C9.57344 0.781576 9.44094 0.811959 9.31806 0.867172C9.19519 0.922384 9.08436 1.00134 8.99189 1.09954L0.280152 10.3567C0.100243 10.5477 0 10.8005 0 11.0633C0 11.3261 0.100243 11.579 0.280152 11.7699L8.99189 21.0281C9.08375 21.1285 9.19456 21.2095 9.31788 21.2665C9.44121 21.3235 9.57459 21.3554 9.71028 21.3602C9.84597 21.365 9.98127 21.3428 10.1083 21.2947C10.2354 21.2466 10.3516 21.1737 10.4503 21.0801C10.5491 20.9866 10.6283 20.8743 10.6834 20.7497C10.7385 20.6252 10.7684 20.4909 10.7713 20.3547C10.7743 20.2184 10.7503 20.083 10.7006 19.9562C10.6509 19.8293 10.5767 19.7137 10.4821 19.6159L2.43451 11.0633L10.4821 2.5128Z" fill="#3C3C43" fill-opacity="0.6"/>
<path d="M10.2023 2.24932L10.2022 2.24938L2.15464 10.7999L1.90675 11.0633L2.15461 11.3267L10.2022 19.8793L10.2022 19.8793L10.2058 19.8831C10.265 19.9443 10.3116 20.0167 10.3427 20.0963C10.3738 20.1758 10.3889 20.2608 10.3871 20.3463C10.3852 20.4319 10.3665 20.5161 10.3319 20.5942C10.2974 20.6723 10.2477 20.7426 10.186 20.8011C10.1242 20.8597 10.0516 20.9052 9.97228 20.9352C9.89299 20.9652 9.80859 20.9791 9.72398 20.9761C9.63936 20.9731 9.55614 20.9532 9.47915 20.9176C9.40216 20.882 9.33288 20.8314 9.27539 20.7686L9.27542 20.7686L9.2718 20.7647L0.560057 11.5066L0.559906 11.5064C0.4473 11.3869 0.384342 11.2283 0.384342 11.0633C0.384342 10.8983 0.4473 10.7398 0.559906 10.6202L0.560042 10.6201L9.27171 1.36302C9.27173 1.363 9.27176 1.36297 9.27178 1.36294C9.32964 1.30152 9.39891 1.25221 9.47559 1.21775C9.55231 1.18327 9.63499 1.16432 9.71892 1.16194C9.80285 1.15956 9.88645 1.17379 9.96497 1.20384L10.102 0.845842L9.96497 1.20385C10.0435 1.2339 10.1154 1.27922 10.1766 1.33728C10.2379 1.39533 10.2872 1.465 10.3217 1.54233C10.3562 1.61967 10.3752 1.70312 10.3776 1.78791C10.38 1.8727 10.3657 1.95711 10.3356 2.03629L10.6948 2.17285L10.3356 2.0363C10.3055 2.11548 10.2602 2.18786 10.2023 2.24932Z" stroke="#3C3C43" stroke-opacity="0.6" stroke-width="0.768683"/>
</svg>
