<svg width="28" height="28" viewBox="0 0 28 28" fill="none" xmlns="http://www.w3.org/2000/svg">
<path d="M27.9836 22.1011C27.9168 21.6881 27.658 21.3352 27.2704 21.1256L21.5364 17.7462L21.4892 17.7198C21.2487 17.5994 20.9832 17.5377 20.7144 17.5397C20.234 17.5397 19.7752 17.7218 19.4568 18.0411L17.7644 19.7348C17.692 19.8036 17.456 19.9032 17.3844 19.9068C17.3648 19.9052 15.4152 19.7648 11.826 16.1742C8.24318 12.5911 8.09118 10.635 8.08998 10.635C8.09198 10.5349 8.19038 10.2997 8.26038 10.2268L9.70358 8.78363C10.212 8.27388 10.3644 7.42884 10.0628 6.77425L6.87558 0.775328C6.64398 0.298391 6.19398 0.00390625 5.69478 0.00390625C5.34158 0.00390625 5.00078 0.150348 4.73438 0.416425L0.800379 4.34275C0.423179 4.71806 0.0983783 5.37425 0.0275783 5.9024C-0.00682173 6.15487 -0.704822 12.1814 7.55518 20.445C14.5676 27.4586 20.0356 28.0035 21.5456 28.0035C21.7295 28.0059 21.9133 27.9964 22.096 27.9751C22.6224 27.9047 23.2776 27.5806 23.6524 27.2049L27.5832 23.2734C27.904 22.9509 28.0504 22.5248 27.9836 22.1011Z" fill="#95B48A"/>
</svg>
