<svg width="28" height="29" viewBox="0 0 28 29" fill="none" xmlns="http://www.w3.org/2000/svg">
<path d="M27.9836 22.958C27.9168 22.5452 27.658 22.1924 27.2704 21.9828L21.5364 18.6044L21.4892 18.578C21.2487 18.4576 20.9832 18.396 20.7144 18.398C20.234 18.398 19.7752 18.58 19.4568 18.8992L17.7644 20.5924C17.692 20.6612 17.456 20.7608 17.3844 20.7644C17.3648 20.7628 15.4152 20.6224 11.826 17.0328C8.24318 13.4508 8.09118 11.4952 8.08998 11.4952C8.09198 11.3952 8.19038 11.16 8.26038 11.0872L9.70358 9.64439C10.212 9.13479 10.3644 8.28999 10.0628 7.63559L6.87558 1.63839C6.64398 1.16159 6.19398 0.867188 5.69478 0.867188C5.34158 0.867188 5.00078 1.01359 4.73438 1.27959L0.800379 5.20479C0.423179 5.57999 0.0983783 6.23599 0.0275783 6.76399C-0.00682173 7.01639 -0.704822 13.0412 7.55518 21.3024C14.5676 28.314 20.0356 28.8588 21.5456 28.8588C21.7295 28.8612 21.9133 28.8517 22.096 28.8304C22.6224 28.76 23.2776 28.436 23.6524 28.0604L27.5832 24.13C27.904 23.8076 28.0504 23.3816 27.9836 22.958Z" fill="#0468DC"/>
</svg>
