<svg width="24" height="24" viewBox="0 0 24 24" fill="none" xmlns="http://www.w3.org/2000/svg">
<path d="M20.39 16.856C20.35 16.6084 20.1947 16.3967 19.9621 16.2709L16.5217 14.2439L16.4934 14.228C16.3492 14.1558 16.1898 14.1188 16.0285 14.12C15.7403 14.12 15.465 14.2292 15.274 14.4208L14.2585 15.4367C14.2151 15.478 14.0735 15.5377 14.0305 15.5399C14.0188 15.5389 12.849 15.4547 10.6955 13.3009C8.54581 11.1517 8.45461 9.97836 8.45389 9.97836C8.45509 9.91836 8.51413 9.77724 8.55613 9.73356L9.42205 8.86788C9.72709 8.56212 9.81853 8.05524 9.63757 7.6626L7.72525 4.06428C7.58629 3.7782 7.31629 3.60156 7.01677 3.60156C6.80485 3.60156 6.60037 3.6894 6.44053 3.849L4.08013 6.20412C3.85381 6.42924 3.65893 6.82284 3.61645 7.13964C3.59581 7.29108 3.17701 10.906 8.13301 15.8627C12.3404 20.0696 15.6212 20.3965 16.5272 20.3965C16.6376 20.3979 16.7479 20.3923 16.8575 20.3795C17.1733 20.3372 17.5664 20.1428 17.7913 19.9175L20.1498 17.5592C20.3423 17.3658 20.4301 17.1102 20.39 16.856Z" fill="white"/>
</svg>
