<svg width="28" height="29" viewBox="0 0 28 29" fill="none" xmlns="http://www.w3.org/2000/svg">
<path d="M27.9831 22.959C27.9163 22.5462 27.6575 22.1934 27.2699 21.9838L21.5359 18.6054L21.4887 18.579C21.2483 18.4586 20.9827 18.3969 20.7139 18.399C20.2335 18.399 19.7747 18.581 19.4563 18.9002L17.7639 20.5934C17.6915 20.6622 17.4555 20.7618 17.3839 20.7654C17.3643 20.7638 15.4147 20.6234 11.8255 17.0338C8.24269 13.4518 8.09069 11.4962 8.08949 11.4962C8.09149 11.3962 8.18989 11.161 8.25989 11.0882L9.70309 9.64536C10.2115 9.13576 10.3639 8.29096 10.0623 7.63656L6.87509 1.63936C6.64349 1.16256 6.19349 0.868164 5.69429 0.868164C5.34109 0.868164 5.00029 1.01456 4.73389 1.28056L0.79989 5.20576C0.42269 5.58096 0.09789 6.23696 0.02709 6.76496C-0.00731001 7.01736 -0.70531 13.0422 7.55469 21.3034C14.5671 28.315 20.0351 28.8598 21.5451 28.8598C21.729 28.8621 21.9128 28.8526 22.0955 28.8314C22.6219 28.761 23.2771 28.437 23.6519 28.0614L27.5827 24.131C27.9035 23.8086 28.0499 23.3826 27.9831 22.959Z" fill="#081C6B"/>
</svg>
