<svg width="21" height="16" viewBox="0 0 21 16" fill="none" xmlns="http://www.w3.org/2000/svg">
<path d="M12.8803 0.0676611C13.0112 0.012833 13.1575 -0.00936353 13.3024 0.00360138C13.4473 0.0165663 13.5851 0.0641712 13.7 0.14099L20.6996 4.80737C20.7898 4.86744 20.8635 4.94382 20.9154 5.03107C20.9673 5.11832 20.9961 5.21429 20.9998 5.31218C21.0035 5.41006 20.982 5.50744 20.9369 5.59739C20.8917 5.68735 20.8239 5.76766 20.7385 5.83263L13.7389 11.1656C13.6268 11.251 13.4883 11.3067 13.3401 11.3261C13.1919 11.3456 13.0403 11.3279 12.9036 11.2752C12.7669 11.2225 12.6508 11.1371 12.5694 11.0292C12.488 10.9213 12.4447 10.7955 12.4447 10.667V8.07516C12.0777 8.12849 11.5986 8.22182 11.0386 8.38181C9.6807 8.77112 7.8437 9.55374 5.99582 11.139C5.88275 11.2363 5.7374 11.3012 5.57962 11.325C5.42184 11.3488 5.25933 11.3303 5.11432 11.2719C4.9693 11.2136 4.84885 11.1182 4.76942 10.999C4.68999 10.8797 4.65547 10.7424 4.67057 10.6057C4.893 8.51114 5.6054 6.98323 6.57445 5.88197C7.40618 4.93144 8.53648 4.20355 9.83313 3.78343C10.6694 3.51174 11.5512 3.35689 12.4447 3.32479V0.667624C12.4445 0.542685 12.4851 0.420191 12.5621 0.31411C12.6391 0.20803 12.7494 0.122634 12.8803 0.0676611ZM0.778809 4.66737C0.778809 3.78337 1.1885 2.93558 1.91777 2.3105C2.64703 1.68542 3.63612 1.33425 4.66745 1.33425H7.77837C7.98464 1.33425 8.18246 1.40448 8.32831 1.5295C8.47416 1.65452 8.5561 1.82407 8.5561 2.00087C8.5561 2.17767 8.47416 2.34723 8.32831 2.47225C8.18246 2.59727 7.98464 2.6675 7.77837 2.6675H4.66745C4.04866 2.6675 3.4552 2.8782 3.01764 3.25325C2.58008 3.6283 2.33427 4.13697 2.33427 4.66737V12.6669C2.33427 13.1973 2.58008 13.706 3.01764 14.081C3.4552 14.456 4.04866 14.6667 4.66745 14.6667H14.0002C14.619 14.6667 15.2125 14.456 15.65 14.081C16.0876 13.706 16.3334 13.1973 16.3334 12.6669V11.3336C16.3334 11.1568 16.4153 10.9873 16.5612 10.8622C16.707 10.7372 16.9049 10.667 17.1111 10.667C17.3174 10.667 17.5152 10.7372 17.6611 10.8622C17.8069 10.9873 17.8889 11.1568 17.8889 11.3336V12.6669C17.8889 13.5509 17.4792 14.3987 16.7499 15.0238C16.0206 15.6488 15.0315 16 14.0002 16H4.66745C3.63612 16 2.64703 15.6488 1.91777 15.0238C1.1885 14.3987 0.778809 13.5509 0.778809 12.6669V4.66737Z" fill="#95B48A"/>
</svg>
