<svg width="21" height="16" viewBox="0 0 21 16" fill="none" xmlns="http://www.w3.org/2000/svg">
<path d="M12.88 0.0676611C13.011 0.012833 13.1572 -0.00936353 13.3022 0.00360138C13.4471 0.0165663 13.5849 0.0641712 13.6998 0.14099L20.6993 4.80737C20.7896 4.86744 20.8632 4.94382 20.9151 5.03107C20.967 5.11832 20.9959 5.21429 20.9996 5.31218C21.0033 5.41006 20.9818 5.50744 20.9366 5.59739C20.8914 5.68735 20.8237 5.76766 20.7382 5.83263L13.7386 11.1656C13.6265 11.251 13.4881 11.3067 13.3399 11.3261C13.1917 11.3456 13.0401 11.3279 12.9034 11.2752C12.7666 11.2225 12.6506 11.1371 12.5692 11.0292C12.4878 10.9213 12.4445 10.7955 12.4445 10.667V8.07516C12.0774 8.12849 11.5983 8.22182 11.0384 8.38181C9.68045 8.77112 7.84346 9.55374 5.99557 11.139C5.88251 11.2363 5.73715 11.3012 5.57937 11.325C5.42159 11.3488 5.25909 11.3303 5.11407 11.2719C4.96906 11.2136 4.8486 11.1182 4.76917 10.999C4.68975 10.8797 4.65522 10.7424 4.67032 10.6057C4.89275 8.51114 5.60515 6.98323 6.5742 5.88197C7.40594 4.93144 8.53623 4.20355 9.83289 3.78343C10.6692 3.51174 11.5509 3.35689 12.4445 3.32479V0.667624C12.4442 0.542685 12.4849 0.420191 12.5619 0.31411C12.6389 0.20803 12.7491 0.122634 12.88 0.0676611ZM0.778564 4.66737C0.778564 3.78337 1.18826 2.93558 1.91752 2.3105C2.64679 1.68542 3.63588 1.33425 4.66721 1.33425H7.77813C7.98439 1.33425 8.18221 1.40448 8.32807 1.5295C8.47392 1.65452 8.55586 1.82407 8.55586 2.00087C8.55586 2.17767 8.47392 2.34723 8.32807 2.47225C8.18221 2.59727 7.98439 2.6675 7.77813 2.6675H4.66721C4.04841 2.6675 3.45496 2.8782 3.0174 3.25325C2.57984 3.6283 2.33402 4.13697 2.33402 4.66737V12.6669C2.33402 13.1973 2.57984 13.706 3.0174 14.081C3.45496 14.456 4.04841 14.6667 4.66721 14.6667H14C14.6188 14.6667 15.2122 14.456 15.6498 14.081C16.0873 13.706 16.3331 13.1973 16.3331 12.6669V11.3336C16.3331 11.1568 16.4151 10.9873 16.5609 10.8622C16.7068 10.7372 16.9046 10.667 17.1109 10.667C17.3171 10.667 17.515 10.7372 17.6608 10.8622C17.8067 10.9873 17.8886 11.1568 17.8886 11.3336V12.6669C17.8886 13.5509 17.4789 14.3987 16.7497 15.0238C16.0204 15.6488 15.0313 16 14 16H4.66721C3.63588 16 2.64679 15.6488 1.91752 15.0238C1.18826 14.3987 0.778564 13.5509 0.778564 12.6669V4.66737Z" fill="#0468DC"/>
</svg>
