<svg width="18" height="19" viewBox="0 0 18 19" fill="none" xmlns="http://www.w3.org/2000/svg">
<path d="M1 4.41016H17" stroke="#3C3C43" stroke-opacity="0.6" stroke-width="1.5" stroke-linecap="round" stroke-linejoin="round"/>
<path d="M10.6362 1.5H7.36349C7.07417 1.5 6.79668 1.61494 6.5921 1.81952C6.38752 2.0241 6.27258 2.30159 6.27258 2.59091V4.40909H11.7271V2.59091C11.7271 2.30159 11.6122 2.0241 11.4076 1.81952C11.2031 1.61494 10.9255 1.5 10.6362 1.5Z" stroke="#3C3C43" stroke-opacity="0.6" stroke-width="1.5" stroke-linecap="round" stroke-linejoin="round"/>
<path d="M7.36353 13.6811V8.22656" stroke="#3C3C43" stroke-opacity="0.6" stroke-width="1.5" stroke-linecap="round" stroke-linejoin="round"/>
<path d="M10.6365 13.6811V8.22656" stroke="#3C3C43" stroke-opacity="0.6" stroke-width="1.5" stroke-linecap="round" stroke-linejoin="round"/>
<path d="M13.9891 16.4974C13.9689 16.7707 13.8458 17.0262 13.6447 17.2125C13.4437 17.3987 13.1795 17.5018 12.9055 17.5011H5.09455C4.82049 17.5018 4.55632 17.3987 4.35525 17.2125C4.15418 17.0262 4.03114 16.7707 4.01091 16.4974L3 4.41016H15L13.9891 16.4974Z" stroke="#3C3C43" stroke-opacity="0.6" stroke-width="1.5" stroke-linecap="round" stroke-linejoin="round"/>
</svg>
