<svg width="99" height="129" viewBox="0 0 99 129" fill="none" xmlns="http://www.w3.org/2000/svg">
<g clip-path="url(#clip0_1592_5265)">
<path d="M30.4762 67.4347V91.4058C30.4749 91.8368 30.3596 92.2596 30.1421 92.6314C29.9246 93.0031 29.6127 93.3104 29.2381 93.5218C28.8635 93.7333 28.4397 93.8414 28.0098 93.8351C27.58 93.8289 27.1594 93.7084 26.7912 93.4861L20.5596 89.7505C19.6562 89.2073 18.9084 88.4391 18.3889 87.5205C17.8694 86.6018 17.5959 85.5641 17.595 84.5081V74.3146C17.594 73.2582 17.3205 72.22 16.801 71.3009C16.2815 70.3818 15.5338 69.613 14.6304 69.0692L2.96464 62.0259C2.06121 61.4821 1.31345 60.7133 0.793986 59.7942C0.274521 58.8751 0.00101409 57.8369 3.30348e-05 56.7805V2.43987C-0.00223357 2.00397 0.112177 1.57544 0.331339 1.19894C0.5505 0.822451 0.86639 0.511779 1.24608 0.299311C1.62577 0.0868426 2.05536 -0.0196425 2.49007 -0.00904521C2.92479 0.00155206 3.34871 0.128844 3.71765 0.359562L7.98075 3.03425C8.85764 3.58449 9.58072 4.34902 10.0822 5.2561C10.5836 6.16319 10.847 7.18311 10.8475 8.22016V48.6792C10.8481 49.7352 11.1215 50.7731 11.6411 51.6918C12.1606 52.6105 12.9085 53.3787 13.8121 53.9216L27.5264 62.1893C28.4275 62.7345 29.1726 63.504 29.6894 64.4231C30.2063 65.3422 30.4773 66.3796 30.4762 67.4347Z" fill="white"/>
<path d="M43.8261 24.4636L19.9847 10.1035C19.6166 9.88272 19.1967 9.76352 18.7677 9.75801C18.3387 9.75251 17.916 9.8609 17.5423 10.0722C17.1686 10.2835 16.8574 10.5901 16.6402 10.961C16.423 11.3319 16.3076 11.7538 16.3057 12.1838V41.0496C16.3064 42.106 16.5797 43.1443 17.0992 44.0635C17.6187 44.9826 18.3666 45.7514 19.2703 46.295L32.9608 54.5479C33.8646 55.0912 34.6127 55.8599 35.1322 56.7791C35.6518 57.6983 35.925 58.7367 35.9254 59.7932V120.868C35.9263 121.924 36.1998 122.962 36.7193 123.881C37.2388 124.799 37.9866 125.567 38.89 126.111L43.0938 128.646C43.4619 128.868 43.8823 128.989 44.312 128.995C44.7418 129.001 45.1656 128.893 45.54 128.682C45.9144 128.47 46.2262 128.163 46.4433 127.791C46.6604 127.419 46.7752 126.996 46.7759 126.565L46.7848 29.7179C46.7856 28.6606 46.5136 27.6211 45.9952 26.7004C45.4768 25.7797 44.7295 25.0092 43.8261 24.4636Z" fill="white"/>
<path d="M69 67.4346V91.4057C69.0016 91.8362 69.117 92.2586 69.3343 92.6299C69.5517 93.0012 69.8632 93.3082 70.2374 93.5195C70.6115 93.7309 71.0348 93.8392 71.4642 93.8333C71.8936 93.8274 72.3138 93.7076 72.682 93.486L78.9077 89.7266C79.8111 89.1835 80.5589 88.4152 81.0784 87.4966C81.5979 86.578 81.8714 85.5402 81.8723 84.4842V74.3145C81.873 73.258 82.1464 72.2198 82.6659 71.3006C83.1854 70.3815 83.9333 69.6127 84.8369 69.0691L96.5293 62.0258C97.4327 61.482 98.1805 60.7132 98.7 59.7941C99.2194 58.875 99.4929 57.8368 99.4939 56.7804V2.43978C99.4965 2.00343 99.3822 1.57437 99.1629 1.19744C98.9436 0.820505 98.6273 0.509516 98.2472 0.296955C97.867 0.0843935 97.4369 -0.0219417 97.0017 -0.0109446C96.5666 5.2535e-05 96.1423 0.127979 95.7733 0.359472L91.5132 3.03416C90.6357 3.58377 89.9122 4.34817 89.4107 5.2554C88.9092 6.16262 88.6462 7.18285 88.6464 8.22007V48.6791C88.6455 49.7351 88.372 50.7729 87.8525 51.6915C87.333 52.6101 86.5852 53.3784 85.6818 53.9215L71.9705 62.1892C71.0656 62.7319 70.3164 63.5003 69.7958 64.4195C69.2752 65.3388 69.001 66.3775 69 67.4346Z" fill="white"/>
<path d="M55.1745 24.4646L79.0159 10.1045C79.3844 9.87918 79.8061 9.75628 80.2377 9.74845C80.6694 9.74062 81.0953 9.84814 81.4717 10.06C81.8481 10.2718 82.1615 10.5803 82.3796 10.9537C82.5977 11.3272 82.7127 11.7521 82.7127 12.1848V41.0506C82.7117 42.107 82.4382 43.1451 81.9188 44.0642C81.3993 44.9833 80.6515 45.7521 79.7481 46.296L66.0516 54.5429C65.1474 55.0858 64.399 55.8545 63.8794 56.7738C63.3599 57.6931 63.0869 58.7317 63.087 59.7883V120.869C63.0861 121.925 62.8126 122.963 62.2931 123.882C61.7736 124.8 61.0258 125.568 60.1224 126.112L55.9157 128.647C55.5476 128.869 55.1272 128.99 54.6974 128.996C54.2677 129.002 53.8439 128.894 53.4695 128.683C53.095 128.471 52.7833 128.164 52.5662 127.792C52.3491 127.42 52.2343 126.997 52.2336 126.566L52.2158 29.7189C52.2144 28.6615 52.4861 27.6218 53.0046 26.701C53.5231 25.7802 54.2707 25.0097 55.1745 24.4646Z" fill="white"/>
</g>
<defs>
<clipPath id="clip0_1592_5265">
<rect width="99" height="129" fill="white"/>
</clipPath>
</defs>
</svg>
