<svg width="40" height="40" viewBox="0 0 40 40" fill="none" xmlns="http://www.w3.org/2000/svg">
<path d="M8.73005 22.6201L21.3151 35.5458C21.8288 36.0734 22.0753 36.6889 22.0548 37.3923C22.0342 38.0958 21.7663 38.7113 21.2509 39.2389C20.7372 39.7225 20.1379 39.9757 19.453 39.9986C18.7681 40.0214 18.1688 39.7682 17.6552 39.2389L0.703891 21.8287C0.447054 21.5649 0.2647 21.2791 0.156828 20.9714C0.0489568 20.6636 -0.00326644 20.3339 0.000158055 19.9821C0.00358255 19.6304 0.0575177 19.3007 0.161965 18.9929C0.266412 18.6852 0.447911 18.3994 0.706461 18.1356L17.6577 0.725423C18.1286 0.241807 18.7176 0 19.4248 0C20.1319 0 20.7415 0.241807 21.2534 0.725423C21.7671 1.253 22.024 1.87995 22.024 2.60625C22.024 3.33256 21.7671 3.95862 21.2534 4.48444L8.73005 17.3442H37.4316C38.1593 17.3442 38.7697 17.5975 39.2629 18.104C39.756 18.6104 40.0017 19.2365 40 19.9821C39.9983 20.7278 39.7517 21.3547 39.2603 21.863C38.7689 22.3712 38.1593 22.6236 37.4316 22.6201H8.73005Z" fill="white" fill-opacity="0.6"/>
</svg>
