<svg width="40" height="40" viewBox="0 0 40 40" fill="none" xmlns="http://www.w3.org/2000/svg">
<path d="M20 28.9375C19.6666 28.9375 19.3542 28.8858 19.0625 28.7825C18.7708 28.6792 18.5 28.5017 18.25 28.25L9.24999 19.25C8.74999 18.75 8.50999 18.1667 8.52999 17.5C8.54999 16.8333 8.78999 16.25 9.24999 15.75C9.74999 15.25 10.3442 14.99 11.0325 14.97C11.7208 14.95 12.3142 15.1892 12.8125 15.6875L17.5 20.375V2.50001C17.5 1.79167 17.74 1.19834 18.22 0.720009C18.7 0.241675 19.2933 0.00167529 20 8.62068e-06C20.7066 -0.00165805 21.3008 0.238342 21.7825 0.720009C22.2641 1.20168 22.5033 1.79501 22.5 2.50001V20.375L27.1875 15.6875C27.6875 15.1875 28.2816 14.9475 28.97 14.9675C29.6583 14.9875 30.2516 15.2483 30.75 15.75C31.2083 16.25 31.4483 16.8333 31.47 17.5C31.4916 18.1667 31.2516 18.75 30.75 19.25L21.75 28.25C21.5 28.5 21.2291 28.6775 20.9375 28.7825C20.6458 28.8875 20.3333 28.9392 20 28.9375ZM5 40C3.625 40 2.44833 39.5108 1.47 38.5325C0.491666 37.5542 0.00166667 36.3767 0 35V30C0 29.2917 0.24 28.6983 0.72 28.22C1.2 27.7417 1.79333 27.5017 2.5 27.5C3.20666 27.4983 3.80083 27.7383 4.2825 28.22C4.76416 28.7017 5.00333 29.295 5 30V35H35V30C35 29.2917 35.24 28.6983 35.72 28.22C36.2 27.7417 36.7933 27.5017 37.5 27.5C38.2066 27.4983 38.8008 27.7383 39.2825 28.22C39.7641 28.7017 40.0033 29.295 40 30V35C40 36.375 39.5108 37.5525 38.5325 38.5325C37.5541 39.5125 36.3766 40.0017 35 40H5Z" fill="white" fill-opacity="0.6"/>
</svg>
